<?xml version="1.0" ?><svg id="Layer_1" style="enable-background:new 0 0 256 256;" version="1.1" viewBox="0 0 256 256" xml:space="preserve" xmlns="http://www.w3.org/2000/svg" xmlns:xlink="http://www.w3.org/1999/xlink"><g><path d="M51.6,122.4c1.2,0,2.4-0.5,3.4-1.4c10.3-10.2,23.8-14.9,42.3-14.9c0.1,0,0.3,0,0.4,0c3.6,0,7.4,0.2,11.2,0.3   c17,0.7,36.2,1.4,51.1-9.9l6.4,6.1c0.9,0.9,2.1,1.3,3.3,1.3c0.5,0,0.9-0.1,1.4-0.2c1.6-0.5,2.9-1.8,3.3-3.5l6.5-27.7   c0.4-1.7-0.1-3.4-1.4-4.6c-1.3-1.2-3-1.6-4.7-1.1L147.6,75c-1.6,0.5-2.9,1.8-3.3,3.5c-0.4,1.7,0.1,3.4,1.4,4.6l7.1,6.7   c-12,8.2-28,7.6-43.5,7c-3.9-0.2-7.8-0.3-11.5-0.3c-0.1,0-0.3,0-0.4,0c-21.2,0-36.8,5.6-49,17.7c-1.9,1.9-1.9,4.9-0.1,6.8   C49.1,121.9,50.4,122.4,51.6,122.4z M169.6,78.4l-2.7,11.5l-8.6-8.1L169.6,78.4z"/><path d="M94.1,72.3c0.6,0,1.1-0.1,1.7-0.3l5.1-1.9l1.9,5.1c0.7,1.9,2.6,3.1,4.5,3.1c0.6,0,1.1-0.1,1.7-0.3c2.5-0.9,3.8-3.7,2.8-6.2   l-1.9-5.1l5.1-1.9c2.5-0.9,3.8-3.7,2.8-6.2c-0.9-2.5-3.7-3.7-6.2-2.8l-5.1,1.9l-1.9-5.1c-0.9-2.5-3.7-3.7-6.2-2.8   c-2.5,0.9-3.8,3.7-2.8,6.2l1.9,5.1L92.4,63c-2.5,0.9-3.8,3.7-2.8,6.2C90.3,71.1,92.1,72.3,94.1,72.3z"/><path d="M110.6,122.9c-7.7-3.5-16.9-0.1-20.4,7.6c-1.7,3.7-1.8,7.9-0.4,11.8c1.4,3.9,4.3,6.9,8,8.6c2,0.9,4.2,1.4,6.4,1.4   c1.8,0,3.7-0.3,5.4-1c3.9-1.4,6.9-4.3,8.6-8c1.7-3.7,1.8-7.9,0.4-11.8C117.2,127.7,114.4,124.6,110.6,122.9z M109.5,139.3   c-0.6,1.4-1.8,2.5-3.2,3c-1.4,0.5-3,0.5-4.4-0.2c-1.4-0.6-2.5-1.8-3-3.2c-0.5-1.4-0.5-3,0.2-4.4c1-2.1,3.1-3.4,5.3-3.4   c0.8,0,1.6,0.2,2.4,0.5c1.4,0.6,2.5,1.8,3,3.2C110.2,136.4,110.1,137.9,109.5,139.3z"/><path d="M173.5,57.8c1,1.2,2.3,1.8,3.8,1.8c1,0,2.1-0.3,3-1l25.3-20.1c2.1-1.7,2.4-4.7,0.8-6.8c-1.6-2.1-4.7-2.4-6.8-0.8L178,48.1   l-7.2-8.9c-1.7-2.1-4.7-2.4-6.8-0.7c-2.1,1.7-2.4,4.7-0.7,6.8L173.5,57.8z"/><path d="M245.8,11.9H10.2c-2.7,0-4.8,2.2-4.8,4.8s2.2,4.8,4.8,4.8h11.5v146.2c0,2.7,2.2,4.8,4.8,4.8h53.4l-20.3,65.3   c-0.8,2.5,0.6,5.2,3.2,6c0.5,0.2,1,0.2,1.4,0.2c2.1,0,4-1.3,4.6-3.4L90,172.6H166l21.2,68.1c0.6,2.1,2.5,3.4,4.6,3.4   c0.5,0,1-0.1,1.4-0.2c2.5-0.8,4-3.5,3.2-6l-20.3-65.3h53.4c2.7,0,4.8-2.2,4.8-4.8V21.6h11.5c2.7,0,4.8-2.2,4.8-4.8   S248.4,11.9,245.8,11.9z M224.7,162.9H31.3V21.6h193.4V162.9z"/></g></svg>